<?xml version="1.0" standalone="no"?>
<!DOCTYPE svg PUBLIC "-//W3C//DTD SVG 20010904//EN"
 "http://www.w3.org/TR/2001/REC-SVG-20010904/DTD/svg10.dtd">
<svg version="1.0" xmlns="http://www.w3.org/2000/svg"
 width="590.000000pt" height="593.000000pt" viewBox="0 0 590.000000 593.000000"
 preserveAspectRatio="xMidYMid meet">

<g transform="translate(0.000000,593.000000) scale(0.100000,-0.100000)"
fill="#000000" stroke="none">
<path d="M2730 4810 c-857 -66 -1584 -539 -1829 -1190 -64 -170 -85 -286 -85
-480 0 -194 21 -310 85 -480 137 -364 443 -694 837 -905 39 -22 72 -44 72 -51
0 -6 -41 -164 -90 -350 -58 -217 -90 -353 -88 -378 4 -48 26 -65 65 -50 16 6
208 134 428 285 339 232 405 273 435 273 19 0 112 -6 206 -13 188 -15 391 -6
581 25 907 146 1587 732 1693 1460 15 104 12 298 -6 405 -34 200 -127 421
-254 602 -83 118 -267 303 -395 398 -447 331 -1052 495 -1655 449z m-539
-1188 c20 -23 29 -43 29 -68 0 -42 -23 -89 -49 -104 -11 -5 -76 -10 -145 -10
l-126 0 0 -379 c0 -340 -2 -381 -17 -396 -41 -41 -122 -47 -174 -12 l-34 23
-3 387 -2 387 -129 0 c-125 0 -129 1 -155 26 -21 22 -26 36 -26 76 0 42 5 54
30 79 l29 30 372 -3 371 -3 29 -33z m389 9 c25 -11 42 -30 58 -65 28 -58 312
-819 312 -836 0 -25 -32 -71 -60 -85 -16 -8 -49 -15 -74 -15 -58 0 -88 34
-112 130 l-19 70 -194 -2 -195 -3 -23 -80 c-26 -92 -47 -115 -105 -115 -73 0
-135 54 -125 109 2 14 43 127 89 251 47 124 116 308 154 409 40 111 78 196 93
214 43 47 123 55 201 18z m590 19 c10 0 32 -12 49 -26 l31 -26 2 -371 3 -372
163 -5 c147 -4 165 -7 178 -24 33 -45 29 -141 -7 -177 -18 -18 -35 -19 -272
-19 l-254 0 -24 26 -24 26 -3 426 c-3 434 -1 475 21 506 14 20 86 47 105 41 8
-3 22 -5 32 -5z m661 0 c11 0 31 -11 44 -25 24 -24 25 -28 25 -182 l0 -158
183 183 c152 152 187 182 211 182 54 0 126 -75 126 -130 0 -14 -51 -75 -142
-172 -79 -82 -143 -155 -142 -161 1 -7 69 -101 152 -211 113 -147 152 -206
152 -226 0 -64 -113 -144 -168 -120 -17 7 -78 82 -167 205 -77 107 -144 194
-150 194 -5 0 -22 -11 -37 -24 l-28 -24 0 -160 0 -161 -25 -16 c-32 -21 -120
-23 -160 -3 l-30 14 -3 476 c-2 466 -2 476 18 494 21 19 85 36 108 29 8 -2 22
-4 33 -4z"/>
<path d="M2437 3228 c-30 -90 -59 -171 -62 -180 -7 -17 3 -18 114 -18 90 0
121 3 121 13 0 15 -104 335 -112 342 -2 3 -30 -68 -61 -157z"/>
</g>
</svg>
