<?xml version="1.0" standalone="no"?>
<!DOCTYPE svg PUBLIC "-//W3C//DTD SVG 20010904//EN"
 "http://www.w3.org/TR/2001/REC-SVG-20010904/DTD/svg10.dtd">
<svg version="1.0" xmlns="http://www.w3.org/2000/svg"
 width="400.000000pt" height="400.000000pt" viewBox="0 0 400.000000 400.000000"
 preserveAspectRatio="xMidYMid meet">

<g transform="translate(0.000000,400.000000) scale(0.100000,-0.100000)"
fill="#000000" stroke="none">
<path d="M0 2000 l0 -2000 2000 0 2000 0 0 2000 0 2000 -2000 0 -2000 0 0
-2000z m2190 1485 c292 -59 564 -290 681 -579 13 -32 31 -60 39 -63 92 -26
184 -107 228 -201 23 -49 27 -70 27 -152 0 -85 -3 -101 -30 -153 -48 -97 -136
-167 -252 -202 -7 -2 -27 -32 -44 -67 -122 -242 -320 -411 -579 -493 -105 -34
-300 -45 -414 -25 -295 52 -546 242 -685 518 -17 35 -37 65 -44 67 -116 35
-207 108 -254 203 -25 50 -28 68 -28 152 0 82 4 103 27 152 44 94 136 175 228
201 8 3 26 31 39 63 41 102 113 213 193 298 229 245 542 347 868 281z m-1508
-2261 l3 -176 67 86 68 86 91 0 91 0 -68 -87 c-37 -49 -78 -99 -91 -114 -12
-14 -23 -29 -23 -33 0 -7 122 -163 178 -228 14 -17 10 -18 -74 -17 l-89 0 -73
90 c-41 49 -77 89 -80 89 -4 0 -6 -40 -4 -90 l3 -90 -80 0 -81 0 0 330 0 330
80 0 80 0 2 -176z m1510 0 c105 -35 172 -132 172 -244 -1 -75 -18 -121 -64
-174 -52 -59 -102 -80 -190 -81 -86 0 -132 18 -186 72 -48 47 -66 88 -72 160
-15 188 163 328 340 267z m-820 -18 l46 -24 48 24 c118 60 268 -5 303 -131 6
-22 11 -107 11 -188 l0 -148 -72 3 -71 3 -1 148 -1 149 -28 24 c-36 31 -62 30
-92 -1 -24 -23 -25 -28 -25 -175 l0 -150 -70 0 -70 0 0 134 c0 148 -9 188 -46
205 -37 16 -52 14 -79 -14 -24 -23 -25 -28 -25 -175 l0 -150 -70 0 -70 0 0
160 c0 175 8 210 58 264 63 67 173 85 254 42z m1424 -12 c30 -18 60 -48 79
-78 30 -49 30 -51 33 -213 l4 -163 -70 0 c-47 0 -71 4 -74 13 -3 6 -5 72 -6
146 -1 122 -3 135 -22 156 -28 30 -66 39 -102 24 -49 -20 -58 -52 -58 -204 l0
-135 -70 0 -70 0 0 157 c0 139 2 162 21 200 24 49 80 101 130 120 58 22 150
12 205 -23z m558 2 c100 -58 126 -127 126 -331 0 -93 -5 -158 -14 -189 -41
-135 -174 -208 -315 -172 -55 14 -140 61 -155 85 -3 4 20 28 51 53 l55 46 36
-24 c75 -51 191 -12 192 65 0 18 -4 22 -17 16 -37 -15 -105 -17 -148 -5 -224
63 -250 367 -40 467 68 33 162 28 229 -11z"/>
<path d="M1599 3012 c-108 -36 -175 -98 -227 -210 -23 -48 -27 -70 -26 -142 1
-101 28 -173 93 -243 38 -40 41 -49 41 -99 0 -143 43 -252 135 -344 103 -104
231 -154 392 -154 159 0 285 50 388 154 93 93 135 200 135 343 0 61 2 68 36
106 60 66 87 138 88 237 1 72 -3 94 -26 142 -37 79 -70 120 -131 162 -143 97
-339 80 -459 -38 l-38 -37 -37 37 c-91 88 -245 125 -364 86z m206 -313 c20
-38 19 -78 -5 -116 -37 -62 -108 -53 -143 18 -15 32 -16 41 -5 75 25 76 119
90 153 23z m533 15 c35 -39 31 -107 -8 -146 -26 -25 -36 -29 -63 -24 -42 9
-66 34 -74 79 -8 49 12 92 50 111 38 18 64 13 95 -20z m-30 -448 c2 -10 -2
-39 -9 -65 -18 -63 -87 -131 -162 -160 -63 -23 -175 -28 -237 -11 -55 15 -126
65 -159 110 -29 41 -50 118 -36 139 4 8 98 10 303 9 281 -3 297 -4 300 -22z"/>
<path d="M2073 1088 c-63 -16 -99 -98 -69 -157 58 -110 216 -73 216 51 0 75
-71 126 -147 106z"/>
<path d="M3182 1075 c-39 -17 -67 -74 -57 -114 20 -80 118 -109 176 -52 81 81
-14 213 -119 166z"/>
</g>
</svg>
